<svg width="15" height="14" viewBox="0 0 15 14" fill="none" xmlns="http://www.w3.org/2000/svg">
<g clip-path="url(#clip0_183_170)">
<path d="M7.5 0C9.35652 0 11.137 0.737498 12.4497 2.05025C13.7625 3.36301 14.5 5.14348 14.5 7C14.5 8.85652 13.7625 10.637 12.4497 11.9497C11.137 13.2625 9.35652 14 7.5 14C5.64348 14 3.86301 13.2625 2.55025 11.9497C1.2375 10.637 0.5 8.85652 0.5 7C0.5 5.14348 1.2375 3.36301 2.55025 2.05025C3.86301 0.737498 5.64348 0 7.5 0ZM6.84375 3.28125V7C6.84375 7.21875 6.95312 7.42383 7.13633 7.54688L9.76133 9.29688C10.0621 9.49922 10.4695 9.41719 10.6719 9.11367C10.8742 8.81016 10.7922 8.40547 10.4887 8.20312L8.15625 6.65V3.28125C8.15625 2.91758 7.86367 2.625 7.5 2.625C7.13633 2.625 6.84375 2.91758 6.84375 3.28125Z" fill="#FFF9DB"/>
</g>
<defs>
<clipPath id="clip0_183_170">
<rect width="14" height="14" fill="white" transform="translate(0.5)"/>
</clipPath>
</defs>
</svg>
