<svg width="11" height="14" viewBox="0 0 11 14" fill="none" xmlns="http://www.w3.org/2000/svg">
<g clip-path="url(#clip0_183_172)">
<path d="M6.11719 13.3416C7.45312 11.7115 10.5 7.76077 10.5 5.54163C10.5 2.85022 8.26042 0.666626 5.5 0.666626C2.73958 0.666626 0.5 2.85022 0.5 5.54163C0.5 7.76077 3.54688 11.7115 4.88281 13.3416C5.20312 13.7301 5.79687 13.7301 6.11719 13.3416ZM5.5 3.91663C5.94203 3.91663 6.36595 4.08783 6.67851 4.39258C6.99107 4.69732 7.16667 5.11065 7.16667 5.54163C7.16667 5.9726 6.99107 6.38593 6.67851 6.69067C6.36595 6.99542 5.94203 7.16663 5.5 7.16663C5.05797 7.16663 4.63405 6.99542 4.32149 6.69067C4.00893 6.38593 3.83333 5.9726 3.83333 5.54163C3.83333 5.11065 4.00893 4.69732 4.32149 4.39258C4.63405 4.08783 5.05797 3.91663 5.5 3.91663Z" fill="#FFF9DB"/>
</g>
<defs>
<clipPath id="clip0_183_172">
<rect width="10" height="13" fill="white" transform="translate(0.5 0.666626)"/>
</clipPath>
</defs>
</svg>
