<svg width="17" height="17" viewBox="0 0 17 17" fill="none" xmlns="http://www.w3.org/2000/svg">
<g clip-path="url(#clip0_183_174)">
<path d="M11.8056 3.33337V3.35525C11.6491 3.34275 11.4927 3.33337 11.3333 3.33337H7.55556C7.06858 3.33337 6.59635 3.399 6.14479 3.52087C6.14184 3.45837 6.13889 3.39587 6.13889 3.33337C6.13889 1.67712 7.40799 0.333374 8.97222 0.333374C10.5365 0.333374 11.8056 1.67712 11.8056 3.33337ZM11.3333 4.33337C11.4366 4.33337 11.5399 4.3365 11.6403 4.34275C11.7642 4.35212 11.8882 4.36462 12.0122 4.38337C12.5316 3.74275 13.3049 3.33337 14.1667 3.33337H14.5061C14.813 3.33337 15.0373 3.63962 14.9635 3.95525L14.5562 5.68025C15.0226 6.14275 15.4033 6.70525 15.663 7.33337H16.0556C16.578 7.33337 17 7.78025 17 8.33337V11.3334C17 11.8865 16.578 12.3334 16.0556 12.3334H15.1111C14.8425 12.7115 14.5238 13.049 14.1667 13.3334V15.3334C14.1667 15.8865 13.7446 16.3334 13.2222 16.3334H12.2778C11.7554 16.3334 11.3333 15.8865 11.3333 15.3334V14.3334H7.55556V15.3334C7.55556 15.8865 7.13351 16.3334 6.61111 16.3334H5.66667C5.14427 16.3334 4.72222 15.8865 4.72222 15.3334V13.3334C3.69219 12.5146 2.98976 11.2615 2.85694 9.83337H2.00694C0.897222 9.83337 0 8.88337 0 7.70837C0 6.53337 0.897222 5.58337 2.00694 5.58337H2.125C2.51753 5.58337 2.83333 5.91775 2.83333 6.33337C2.83333 6.749 2.51753 7.08337 2.125 7.08337H2.00694C1.68229 7.08337 1.41667 7.36462 1.41667 7.70837C1.41667 8.05212 1.68229 8.33337 2.00694 8.33337H2.92778C3.2849 6.46462 4.63073 4.974 6.36024 4.49587C6.74097 4.38962 7.14236 4.33337 7.55556 4.33337H11.3333ZM13.2222 8.58337C13.2222 8.38446 13.1476 8.1937 13.0148 8.05304C12.8819 7.91239 12.7018 7.83337 12.5139 7.83337C12.326 7.83337 12.1459 7.91239 12.013 8.05304C11.8802 8.1937 11.8056 8.38446 11.8056 8.58337C11.8056 8.78229 11.8802 8.97305 12.013 9.1137C12.1459 9.25436 12.326 9.33337 12.5139 9.33337C12.7018 9.33337 12.8819 9.25436 13.0148 9.1137C13.1476 8.97305 13.2222 8.78229 13.2222 8.58337Z" fill="#FFF9DB"/>
</g>
<defs>
<clipPath id="clip0_183_174">
<rect width="17" height="16" fill="white" transform="translate(0 0.333374)"/>
</clipPath>
</defs>
</svg>
