<svg xmlns="http://www.w3.org/2000/svg" fill="none" viewBox="21.067615658362993 52.6 254.91814946619218 370.304" style="max-height: 500px" width="254.91814946619218" height="370.304">
<path stroke="black" fill="#201461" d="M148 304.049C210.508 304.049 261.26 354.776 261.26 417.26C261.26 418.43 261.24 419.598 261.204 420.761L261.19 421.245H34.8098L34.7941 420.761C34.7587 419.598 34.7414 418.43 34.7414 417.26C34.7415 354.776 85.4912 304.049 148 304.049Z"/>
<path stroke="black" fill="#3780D7" d="M148 154.906C181.949 154.906 209.47 182.416 209.47 216.35C209.47 250.285 181.949 277.795 148 277.795C114.051 277.795 86.5301 250.285 86.53 216.35C86.53 182.416 114.051 154.906 148 154.906Z"/>
<path stroke="black" fill="#1255A7" d="M98.2339 181.474C100.794 181.485 104.509 182.521 108.679 184.399C113.147 186.412 118.2 189.421 123.024 193.284C132.661 201.002 141.455 212.192 142.746 225.738L142.814 226.394C143.565 233.068 145.816 236.87 149.031 239.137C152.384 241.502 156.873 242.264 162.111 242.703C172.513 243.575 185.686 243.138 197.2 252.366L197.577 252.668L197.288 253.056C186.077 268.068 168.166 277.796 148 277.796C114.074 277.796 86.5299 250.262 86.5298 216.351C86.5298 212.17 87.3581 205.666 89.1196 199.138C90.8787 192.619 93.5869 186.004 97.3872 181.655L97.5269 181.496L97.7378 181.485L98.2339 181.474Z"/>
<path stroke="black" fill="#2B1E6F" d="M88.3862 203.53C93.2303 202.642 98.7555 203.37 104.115 207.815C109.453 212.243 114.586 220.326 118.762 234.062L119.06 235.021C122.159 244.8 125.992 250.606 130.311 254.094C134.764 257.692 139.795 258.877 145.245 259.344C156.092 260.272 168.72 258.285 180.77 267.537L181.339 267.974L180.732 268.356C171.252 274.334 160.027 277.796 148 277.796C114.074 277.796 86.5298 250.262 86.5298 216.35C86.5298 213.196 87.0016 208.724 87.9868 203.922L88.0542 203.591L88.3862 203.53Z"/>
<mask fill="white" id="path-5-inside-1_56_81">
<path d="M35.6817 177.768C42.5757 149.729 99.9456 139.73 163.821 155.434C227.697 171.138 273.891 206.599 266.997 234.638C260.104 262.677 202.734 272.676 138.857 256.972C74.9813 241.268 28.7882 205.807 35.6817 177.768ZM159.818 165.961C110.483 153.832 66.1724 161.555 60.8477 183.211C55.5234 204.868 91.2015 232.257 140.537 244.386C189.873 256.516 234.184 248.793 239.509 227.136C244.833 205.48 209.154 178.091 159.818 165.961Z"/>
</mask>
<path fill="#C9ACD2" d="M35.6817 177.768C42.5757 149.729 99.9456 139.73 163.821 155.434C227.697 171.138 273.891 206.599 266.997 234.638C260.104 262.677 202.734 272.676 138.857 256.972C74.9813 241.268 28.7882 205.807 35.6817 177.768ZM159.818 165.961C110.483 153.832 66.1724 161.555 60.8477 183.211C55.5234 204.868 91.2015 232.257 140.537 244.386C189.873 256.516 234.184 248.793 239.509 227.136C244.833 205.48 209.154 178.091 159.818 165.961Z"/>
<path mask="url(#path-5-inside-1_56_81)" fill="black" d="M35.6817 177.768L34.7106 177.529L34.7106 177.529L35.6817 177.768ZM163.821 155.434L164.06 154.463L164.06 154.463L163.821 155.434ZM266.997 234.638L267.968 234.877L266.997 234.638ZM138.857 256.972L138.619 257.943L138.619 257.943L138.857 256.972ZM159.818 165.961L160.057 164.99L160.057 164.99L159.818 165.961ZM60.8477 183.211L59.8766 182.973L59.8766 182.973L60.8477 183.211ZM140.537 244.386L140.298 245.357L140.298 245.357L140.537 244.386ZM239.509 227.136L240.48 227.375L240.48 227.375L239.509 227.136ZM35.6817 177.768L36.6527 178.007C38.2975 171.317 42.9675 165.627 50.163 161.087C57.3642 156.543 67.0421 153.189 78.5551 151.183C101.578 147.17 131.747 148.578 163.583 156.405L163.821 155.434L164.06 154.463C132.02 146.586 101.566 145.142 78.2117 149.212C66.536 151.247 56.5865 154.669 49.0958 159.396C41.5993 164.125 36.5128 170.2 34.7106 177.529L35.6817 177.768ZM163.821 155.434L163.583 156.405C195.419 164.232 222.801 176.973 241.339 191.204C250.609 198.32 257.628 205.779 261.902 213.144C266.172 220.503 267.671 227.71 266.026 234.399L266.997 234.638L267.968 234.877C269.77 227.547 268.08 219.807 263.632 212.14C259.186 204.479 251.958 196.834 242.557 189.617C223.752 175.182 196.1 162.34 164.06 154.463L163.821 155.434ZM266.997 234.638L266.026 234.399C264.381 241.089 259.711 246.78 252.516 251.32C245.315 255.863 235.637 259.217 224.124 261.224C201.101 265.237 170.932 263.828 139.096 256.001L138.857 256.972L138.619 257.943C170.659 265.82 201.113 267.265 224.467 263.194C236.143 261.159 246.093 257.737 253.583 253.011C261.08 248.281 266.166 242.207 267.968 234.877L266.997 234.638ZM138.857 256.972L139.096 256.001C107.26 248.174 79.8775 235.433 61.3399 221.203C52.0698 214.086 45.0504 206.627 40.777 199.262C36.5071 191.904 35.0081 184.696 36.6527 178.007L35.6817 177.768L34.7106 177.529C32.9085 184.859 34.5986 192.599 39.0472 200.266C43.4923 207.927 50.721 215.572 60.122 222.789C78.9266 237.225 106.579 250.066 138.619 257.943L138.857 256.972ZM159.818 165.961L160.057 164.99C135.287 158.901 111.733 157.781 93.6573 160.932C84.6209 162.507 76.9053 165.157 71.0868 168.829C65.2625 172.503 61.2865 177.239 59.8766 182.973L60.8477 183.211L61.8187 183.45C63.0712 178.356 66.6308 174.005 72.154 170.52C77.6831 167.031 85.127 164.449 94.0007 162.902C111.745 159.809 135.014 160.893 159.58 166.933L159.818 165.961ZM60.8477 183.211L59.8766 182.973C58.4668 188.707 59.7939 194.746 63.2502 200.703C66.7031 206.653 72.31 212.579 79.586 218.165C94.1404 229.338 115.529 239.268 140.298 245.357L140.537 244.386L140.776 243.415C116.21 237.376 95.0913 227.546 80.8039 216.578C73.6589 211.093 68.2611 205.353 64.9801 199.699C61.7024 194.05 60.5664 188.544 61.8187 183.45L60.8477 183.211ZM140.537 244.386L140.298 245.357C165.068 251.447 188.623 252.567 206.699 249.416C215.736 247.841 223.451 245.191 229.27 241.519C235.094 237.844 239.07 233.109 240.48 227.375L239.509 227.136L238.538 226.898C237.285 231.991 233.726 236.343 228.203 239.828C222.673 243.316 215.229 245.899 206.356 247.446C188.611 250.539 165.342 249.455 140.776 243.415L140.537 244.386ZM239.509 227.136L240.48 227.375C241.89 221.641 240.563 215.602 237.106 209.645C233.653 203.694 228.046 197.768 220.77 192.183C206.215 181.01 184.827 171.08 160.057 164.99L159.818 165.961L159.58 166.933C184.146 172.972 205.265 182.801 219.552 193.769C226.697 199.254 232.095 204.994 235.376 210.649C238.654 216.298 239.79 221.804 238.538 226.898L239.509 227.136Z"/>
<path stroke="black" fill="#79A9E3" d="M148 154.906C181.926 154.906 209.47 182.438 209.47 216.35C209.47 225.213 207.588 233.642 204.202 241.255L203.975 241.769L203.491 241.483C197.721 238.064 194.093 234.397 191.724 230.649C189.357 226.903 188.265 223.103 187.53 219.454C186.788 215.767 186.422 212.341 185.492 209.133C184.632 206.167 183.306 203.475 180.799 201.16L180.282 200.702C177.307 198.176 174.777 197.226 172.298 196.969C169.779 196.708 167.306 197.154 164.347 197.486C161.41 197.815 158.083 198.014 153.998 197.202C150.17 196.44 145.699 194.796 140.267 191.57L139.168 190.904C126.472 183.054 115.272 178.023 106.106 174.801L104.299 174.181L103.542 173.927L104.101 173.357L104.627 172.827C115.746 161.755 131.08 154.906 148 154.906Z"/>
<path stroke="black" fill="#F288C6" d="M62.0247 247.653C68.6655 247.653 74.0491 253.034 74.0492 259.673C74.0492 266.311 68.6655 271.692 62.0247 271.692C55.384 271.692 50.0003 266.311 50.0003 259.673C50.0004 253.034 55.3841 247.653 62.0247 247.653Z"/>
<path stroke="black" fill="#DE6DAF" d="M52.8949 253.33C52.9671 255.573 54.227 259.932 57.2894 262.794C58.8082 264.213 60.7681 265.263 63.2581 265.514C65.7534 265.765 68.8223 265.218 72.558 263.37L73.7083 262.801L73.2455 263.998C71.5069 268.496 67.1372 271.693 62.0247 271.693C55.3881 271.693 50.0003 266.307 50.0003 259.673C50.0004 257.237 50.7283 254.967 51.9779 253.07L52.8441 251.755L52.8949 253.33Z"/>
<path stroke="black" fill="#3780D7" d="M66.7245 147.445C69.5338 147.445 71.8114 149.722 71.8114 152.531C71.8112 155.339 69.5336 157.615 66.7245 157.615C63.9151 157.615 61.6368 155.339 61.6366 152.531C61.6366 149.722 63.915 147.445 66.7245 147.445Z"/>
<path stroke="black" fill="#2468BB" d="M62.8944 150.491C63.3123 151.088 63.8432 151.755 64.4071 152.245C64.9911 152.752 65.5036 152.977 65.9091 152.919L66.0731 152.902C66.896 152.847 67.7833 153.241 68.496 153.733C69.2666 154.264 69.9641 155 70.2821 155.701L70.4315 156.031L70.1649 156.275C69.2597 157.106 68.0507 157.615 66.7245 157.616C63.9166 157.616 61.6366 155.337 61.6366 152.53C61.6367 151.843 61.7737 151.185 62.0223 150.585L62.3719 149.743L62.8944 150.491Z"/>
<path stroke="black" fill="#C379E3" d="M250.444 184.128C254.613 184.128 257.993 187.506 257.993 191.674C257.993 195.842 254.613 199.22 250.444 199.22C246.275 199.22 242.895 195.842 242.895 191.674C242.895 187.506 246.275 184.128 250.444 184.128Z"/>
<path stroke="black" fill="#A558C6" d="M244.818 188.199C244.796 189.224 244.976 190.376 245.682 191.065C246.345 191.711 247.66 192.114 250.332 191.198L250.671 191.09C252.349 190.596 253.745 190.799 254.848 191.482C256.005 192.198 256.766 193.4 257.21 194.684L257.28 194.884L257.184 195.073C255.94 197.531 253.388 199.221 250.444 199.221C246.277 199.221 242.895 195.839 242.895 191.674C242.895 190.317 243.254 189.043 243.883 187.941L244.818 188.199Z"/>
<path stroke="black" fill="#EEC912" d="M258.516 247.367L259.762 254.365L264.469 256.159L265.694 256.627L264.469 257.094L259.762 258.886L258.516 265.883H257.532L256.288 258.886L251.582 257.094L250.355 256.627L251.582 256.159L256.288 254.365L257.532 247.367H258.516Z"/>
<path stroke="black" fill="#FFE97A" d="M258.516 247.367L259.761 254.365L264.469 256.159L265.695 256.627L264.468 257.094L259.76 258.887L259.669 259.396L259.492 260.38L258.811 259.648C257.839 258.604 256.906 257.272 256.042 255.838L255.677 255.218L255.383 254.71L255.931 254.501L256.287 254.365L257.531 247.367H258.516Z"/>
<path stroke="black" fill="#EEC912" d="M44.2793 206.91L45.4541 213.578L48.5693 215.997L49.0781 216.391L48.5693 216.786L45.4541 219.206L44.2793 225.873H43.2949L42.1191 219.206L39.0049 216.786L38.4961 216.391L39.0049 215.997L42.1191 213.578L43.2949 206.91H44.2793Z"/>
<path stroke="black" fill="#FFE97A" d="M44.2798 206.91L45.4537 213.578L48.5689 215.997L49.0777 216.391L48.5689 216.786L45.855 218.894L45.6441 219.058L45.3912 218.974C43.108 218.22 41.497 216.923 40.3765 215.588L40.0425 215.191L40.4527 214.872L42.1187 213.577L43.2945 206.91H44.2798Z"/>
<path stroke="black" fill="#EEC912" d="M203.155 157.227L204.195 161.754L206.952 163.397L207.673 163.827L206.952 164.255L204.195 165.897L203.155 170.424H202.181L201.14 165.897L198.384 164.255L197.663 163.827L198.384 163.397L201.14 161.754L202.181 157.227H203.155Z"/>
<path stroke="black" fill="#FFE66C" d="M203.155 157.227L204.195 161.754L206.952 163.397L207.672 163.827L206.952 164.255L204.852 165.506L204.604 165.655L204.351 165.513C204.06 165.35 203.772 165.172 203.487 164.982L203.203 164.788C202.28 164.14 201.475 163.409 200.808 162.635L200.419 162.184L200.931 161.878L201.14 161.753L202.18 157.227H203.155Z"/>
<path stroke="black" fill="#EEC912" d="M136.697 262.378L138.051 269.528L141.647 272.131L142.206 272.536L141.647 272.94L138.051 275.542L136.697 282.693H135.715L134.361 275.542L130.767 272.94L130.207 272.536L130.767 272.131L134.361 269.528L135.715 262.378H136.697Z"/>
<path stroke="black" fill="#FFE97A" d="M136.698 262.378L138.05 269.528L141.646 272.131L142.206 272.535L141.646 272.94L139.017 274.844L138.803 274.999L138.554 274.909C136.181 274.055 134.221 272.866 132.62 271.566L132.114 271.155L132.642 270.772L134.361 269.528L135.715 262.378H136.698Z"/>
</svg>