<svg width="28" height="20" viewBox="0 0 28 20" fill="none" xmlns="http://www.w3.org/2000/svg">
<path d="M15.3949 0.785212C17.134 0.351617 18.8959 1.40965 19.3297 3.14863L21.5979 12.2461C22.0315 13.9852 20.9724 15.7465 19.2333 16.1801L6.98711 19.2334C5.24807 19.6669 3.48694 18.6088 3.05332 16.8698L0.785065 7.77232C0.351653 6.03336 1.40984 4.27225 3.14872 3.83853L15.3949 0.785212Z" fill="#FFFBEB"/>
<path d="M23.9212 3.83838C25.6602 4.27198 26.7192 6.03335 26.2858 7.77241L24.0175 16.8699C23.5839 18.609 21.8219 19.6669 20.0828 19.2333L7.83658 16.18C6.09762 15.7462 5.03937 13.9852 5.47293 12.2462L7.74118 3.14872C8.17489 1.40984 9.93601 0.351655 11.675 0.785065L23.9212 3.83838Z" fill="#FFFBEB"/>
<mask id="path-3-outside-1_236_900" maskUnits="userSpaceOnUse" x="2.82421" y="0.434039" width="21.1501" height="18.1753" fill="black">
<rect fill="white" x="2.82421" y="0.434039" width="21.1501" height="18.1753"/>
<path d="M19.9651 1.57644C21.7573 1.59146 23.1987 3.05645 23.1839 4.84864L23.1053 14.2233C23.0902 16.0155 21.6244 17.4561 19.8321 17.4411L7.07868 17.3343C5.28656 17.3191 3.84596 15.8542 3.86087 14.0621L3.93942 4.68739C3.9546 2.89529 5.41952 1.45471 7.21162 1.46957L19.9651 1.57644Z"/>
</mask>
<path d="M19.9651 1.57644C21.7573 1.59146 23.1987 3.05645 23.1839 4.84864L23.1053 14.2233C23.0902 16.0155 21.6244 17.4561 19.8321 17.4411L7.07868 17.3343C5.28656 17.3191 3.84596 15.8542 3.86087 14.0621L3.93942 4.68739C3.9546 2.89529 5.41952 1.45471 7.21162 1.46957L19.9651 1.57644Z" fill="#151319"/>
<path d="M23.1839 4.84864L23.905 4.85468L23.905 4.85462L23.1839 4.84864ZM23.1053 14.2233L23.8265 14.2294L23.8265 14.2294L23.1053 14.2233ZM7.07868 17.3343L7.07258 18.0554L7.07264 18.0554L7.07868 17.3343ZM3.86087 14.0621L3.13969 14.056L3.13969 14.0561L3.86087 14.0621ZM3.93942 4.68739L3.21825 4.68128L3.21825 4.68134L3.93942 4.68739ZM7.21162 1.46957L7.21766 0.748397L7.2176 0.748397L7.21162 1.46957ZM19.9651 1.57644L19.959 2.29761C21.3532 2.3093 22.4742 3.44893 22.4627 4.84266L23.1839 4.84864L23.905 4.85462C23.9232 2.66396 22.1614 0.873615 19.9711 0.855262L19.9651 1.57644ZM23.1839 4.84864L22.4627 4.8426L22.3841 14.2173L23.1053 14.2233L23.8265 14.2294L23.905 4.85468L23.1839 4.84864ZM23.1053 14.2233L22.3841 14.2172C22.3724 15.611 21.2324 16.7316 19.8382 16.7199L19.8321 17.4411L19.8261 18.1623C22.0164 18.1806 23.808 16.4201 23.8265 14.2294L23.1053 14.2233ZM19.8321 17.4411L19.8382 16.7199L7.08473 16.6131L7.07868 17.3343L7.07264 18.0554L19.8261 18.1623L19.8321 17.4411ZM7.07868 17.3343L7.08479 16.6131C5.69089 16.6013 4.57045 15.4619 4.58205 14.0681L3.86087 14.0621L3.13969 14.0561C3.12147 16.2465 4.88223 18.0369 7.07258 18.0554L7.07868 17.3343ZM3.86087 14.0621L4.58205 14.0681L4.6606 4.69343L3.93942 4.68739L3.21825 4.68134L3.13969 14.056L3.86087 14.0621ZM3.93942 4.68739L4.6606 4.69349C4.6724 3.29964 5.81179 2.17919 7.20564 2.19075L7.21162 1.46957L7.2176 0.748397C5.02725 0.730235 3.23679 2.49094 3.21825 4.68128L3.93942 4.68739ZM7.21162 1.46957L7.20557 2.19075L19.959 2.29761L19.9651 1.57644L19.9711 0.855262L7.21766 0.748397L7.21162 1.46957Z" fill="#151319" mask="url(#path-3-outside-1_236_900)"/>
<path d="M19.8328 1.44238C21.6251 1.44238 23.0788 2.89524 23.0789 4.6875V14.0635C23.0789 15.8558 21.6252 17.3086 19.8328 17.3086H7.21173C5.41949 17.3084 3.96665 15.8557 3.96661 14.0635V4.6875C3.96677 2.89534 5.41957 1.44254 7.21173 1.44238H19.8328ZM7.57306 2.88477C6.37813 2.88477 5.409 3.8539 5.409 5.04883V13.7031C5.40915 14.8979 6.37823 15.8662 7.57306 15.8662H19.4725C20.6673 15.8662 21.6364 14.8979 21.6365 13.7031V5.04883C21.6365 3.8539 20.6674 2.88477 19.4725 2.88477H7.57306Z" fill="#FFFBEB"/>
<path d="M9.01508 10.4574C7.53332 10.4574 5.43532 14.2117 4.84679 15.3229L5.05985 15.8665H21.4273L22.1325 11.5939C21.4976 10.3057 19.6012 6.85144 17.5215 6.85144C14.965 6.85144 12.2605 12.0707 12.2605 12.0707C12.2605 12.0707 10.7542 10.4574 9.01508 10.4574Z" fill="#FFFBEB"/>
<circle cx="8.47421" cy="6.31051" r="1.6227" fill="#FFFBEB"/>
</svg>
